<?xml version="1.0" encoding="UTF-8" standalone="no"?>
<!-- Created with Inkscape (http://www.inkscape.org/) -->

<svg
   xmlns:dc="http://purl.org/dc/elements/1.1/"
   xmlns:cc="http://creativecommons.org/ns#"
   xmlns:rdf="http://www.w3.org/1999/02/22-rdf-syntax-ns#"
   xmlns:svg="http://www.w3.org/2000/svg"
   xmlns="http://www.w3.org/2000/svg"
   xmlns:sodipodi="http://sodipodi.sourceforge.net/DTD/sodipodi-0.dtd"
   xmlns:inkscape="http://www.inkscape.org/namespaces/inkscape"
   width="56.926231mm"
   height="59.325294mm"
   viewBox="0 0 56.926231 59.325294"
   version="1.1"
   id="svg8"
   inkscape:version="0.92.5 (2060ec1f9f, 2020-04-08)"
   sodipodi:docname="x.svg">
  <defs
     id="defs2" />
  <sodipodi:namedview
     id="base"
     pagecolor="#ffffff"
     bordercolor="#666666"
     borderopacity="1.0"
     inkscape:pageopacity="0.0"
     inkscape:pageshadow="2"
     inkscape:zoom="0.98994949"
     inkscape:cx="116.5204"
     inkscape:cy="200.79931"
     inkscape:document-units="mm"
     inkscape:current-layer="layer1"
     showgrid="false"
     inkscape:window-width="1920"
     inkscape:window-height="1011"
     inkscape:window-x="1920"
     inkscape:window-y="0"
     inkscape:window-maximized="1"
     fit-margin-top="0"
     fit-margin-left="0"
     fit-margin-right="0"
     fit-margin-bottom="0" />
  <metadata
     id="metadata5">
    <rdf:RDF>
      <cc:Work
         rdf:about="">
        <dc:format>image/svg+xml</dc:format>
        <dc:type
           rdf:resource="http://purl.org/dc/dcmitype/StillImage" />
        <dc:title></dc:title>
      </cc:Work>
    </rdf:RDF>
  </metadata>
  <g
     inkscape:label="Layer 1"
     inkscape:groupmode="layer"
     id="layer1"
     transform="translate(-26.626285,-47.436097)">
    <g
       id="g864"
       transform="translate(-15.768902,-16.83798)">
      <path
         inkscape:connector-curvature="0"
         d="m 45.780737,64.274077 c 0.192249,0.222309 0.390067,0.439918 0.576749,0.66692 1.339073,1.628285 2.61351,3.314808 3.922062,4.967142 3.065357,3.87069 2.008471,2.541606 5.444413,6.760686 1.211453,1.470969 2.410143,2.952546 3.634359,4.412911 2.605598,3.108209 5.811412,6.802083 8.47145,9.840746 2.567308,2.932726 6.618238,7.529864 9.260996,10.392308 1.552398,1.68145 3.145785,3.3246 4.718677,4.98689 3.947523,3.95392 8.039077,7.76046 12.345657,11.3209 2.08883,1.72693 3.111106,2.48013 5.166318,4.0485 0,0 -3.068278,1.92829 -3.068278,1.92829 v 0 C 90.301814,118.65612 84.574442,113.4564 79.185949,107.899 c -1.570038,-1.66678 -3.158461,-3.31644 -4.71011,-5.00035 -1.575244,-1.70953 -3.11894,-3.447875 -4.670015,-5.179356 C 64.08807,91.336507 58.42228,84.906005 52.85224,78.393797 50.316923,75.444288 47.79451,72.484096 45.262059,69.53219 44.716975,68.896822 43.666563,67.638887 43.036053,66.960437 42.830697,66.73947 42.608809,66.534466 42.395187,66.321481 c 0,0 3.38555,-2.047404 3.38555,-2.047404 z"
         id="path821"
         style="opacity:0.62400004;fill:#ff0000;fill-opacity:1;stroke-width:0.26458332" />
      <path
         style="opacity:0.62400004;fill:#ff0000;fill-opacity:1;stroke-width:0.26458332"
         id="path860"
         d="m 95.935868,64.274077 c -0.192249,0.222309 -0.390067,0.439918 -0.576749,0.66692 -1.339073,1.628285 -2.61351,3.314808 -3.922062,4.967142 -3.065357,3.87069 -2.008471,2.541606 -5.444413,6.760686 -1.211453,1.470969 -2.410143,2.952546 -3.634359,4.412911 -2.605598,3.108209 -5.811412,6.802083 -8.47145,9.840746 -2.567308,2.932726 -6.618238,7.529864 -9.260996,10.392308 -1.552398,1.68145 -3.145785,3.3246 -4.718677,4.98689 -3.947523,3.95392 -8.039077,7.76046 -12.345657,11.3209 -2.08883,1.72693 -3.111106,2.48013 -5.166318,4.0485 0,0 3.068278,1.92829 3.068278,1.92829 v 0 c 5.951326,-4.94325 11.678698,-10.14297 17.067191,-15.70037 1.570038,-1.66678 3.158461,-3.31644 4.71011,-5.00035 1.575244,-1.70953 3.11894,-3.447875 4.670015,-5.179356 5.717754,-6.382787 11.383544,-12.813289 16.953584,-19.325497 2.535317,-2.949509 5.05773,-5.909701 7.590181,-8.861607 0.545084,-0.635368 1.595496,-1.893303 2.226006,-2.571753 0.205356,-0.220967 0.427244,-0.425971 0.640866,-0.638956 0,0 -3.38555,-2.047404 -3.38555,-2.047404 z"
         inkscape:connector-curvature="0" />
    </g>
  </g>
</svg>
